<svg xmlns="http://www.w3.org/2000/svg" viewBox="0 0 23 23"><path d="M1 1h7v7h-7zM11 1h1v1h-1zM15 1h7v7h-7zM2 2v5h5v-5zM12 2h2v2h-1v-1h-1zM16 2v5h5v-5zM3 3h3v3h-3zM9 3h2v2h1v-1h1v1h1v5h1v1h1v1h-2v-1h-1v-2h-1v-1h1v-2h-1v2h-1v-2h-1v3h-1zM17 3h3v3h-3zM1 9h1v1h-1zM3 9h5v1h-1v1h1v1h-1v1h-1v-1h-1v-2h-2zM15 9h5v1h2v1h-1v1h1v1h-1v1h1v1h-1v1h-1v-1h-1v1h-1v-1h-2v1h-1v-1h-1v1h1v1h-2v1h-1v1h-1v-2h-1v2h1v1h-2v-4h4v-2h2v-1h1v1h1v-1h-1v-1h2v-1h-2v-1h-1zM2 10h1v3h-1v1h-1v-2h1zM8 10h2v1h-2zM11 10h1v1h-1zM12 11h1v1h-1zM19 11v1h1v-1zM4 12h1v1h-1zM8 12h1v1h-1zM10 12h1v2h-1v1h-1v-2h1zM3 13h1v1h-1zM5 13h1v1h-1zM7 13h1v1h-1zM12 13h1v1h-1zM19 13v1h1v-1zM11 14h1v1h-1zM1 15h7v7h-7zM2 16v5h5v-5zM19 16h1v1h-1zM3 17h3v3h-3zM15 17h3v1h1v1h-3v-1h-1zM20 17h2v1h-2zM12 19h4v1h-1v1h-1v-1h-1v2h-1v-1h-1v-1h1zM16 20h4v1h-3v1h-2v-1h1zM9 21h2v1h-2zM20 21h1v1h-1z"/></svg>